<svg id="Layer_1" data-name="Layer 1" xmlns="http://www.w3.org/2000/svg" viewBox="178.88990783691406 263.2698974609375 825.9700927734375 676.9595336914062"><defs><style>.cls-1{fill:#9FA1A8;}.cls-2,.cls-5,.cls-6{fill:#fff;}.cls-2,.cls-3,.cls-7{stroke:#1d252e;}.cls-2,.cls-3,.cls-6,.cls-7{stroke-linecap:round;stroke-linejoin:round;}.cls-2,.cls-3{stroke-width:4px;}.cls-3,.cls-8{fill:#1d252e;}.cls-4{fill:#F45B69;}.cls-6{stroke:#F45B69;stroke-width:4.14px;}.cls-7{fill:none;stroke-width:2px;}</style></defs><path id="Path-141" class="cls-1" d="M758.14,467.29C647.45,392.45,393.16,193.21,260,309.14S199.75,981.74,592,921.8c147.36-22.52,370-34.95,401.22-104C1045.12,702.94,827.25,514,758.14,467.29Z"></path><path class="cls-2" d="M894.25,685.86c0,6.35-3.53,11.48-7.85,11.47l-10.55,0-679.6-1.77h-7.2c-5.64,0-10.19-5.18-10.16-11.53l2.46-411.4a7.09,7.09,0,0,1,.49-2.62,9,9,0,0,1,4-4.63,11.57,11.57,0,0,1,1.74-.81,11.77,11.77,0,0,1,4-.68l697.33,1.82a7.15,7.15,0,0,1,4.36,1.5,5.67,5.67,0,0,1,.59.51,9,9,0,0,1,2.84,6.75l-.11,32.35Z"></path><path class="cls-3" d="M896.72,275.6l-.12,37.73-714.93-2.15.11-37.73A10.18,10.18,0,0,1,192,263.27l697,2.09C893.27,265.38,896.74,270,896.72,275.6Z"></path><circle class="cls-4" cx="206.36" cy="287.16" r="8.67"></circle><circle class="cls-5" cx="236.47" cy="287.16" r="8.67"></circle><path class="cls-5" d="M266.58,278.48l0,2.43a6.24,6.24,0,1,1-6.27,6.23,6.25,6.25,0,0,1,6.27-6.23v-2.43m0,0a8.68,8.68,0,0,0,0,17.35h0a8.68,8.68,0,0,0,0-17.35Z"></path><rect class="cls-6" x="245.23" y="381.09" width="165.97" height="97.51" rx="7.72"></rect><circle class="cls-3" cx="405.21" cy="469.53" r="26.36"></circle><path class="cls-4" d="M398.52,485.79a3.35,3.35,0,0,1-2.4-1l-8.57-8.57a3.39,3.39,0,0,1,4.79-4.8l6.18,6.18,19.34-19.35a3.39,3.39,0,0,1,4.8,4.8l-21.74,21.74A3.37,3.37,0,0,1,398.52,485.79Z"></path><rect class="cls-6" x="444.64" y="381.09" width="165.97" height="97.51" rx="7.72"></rect><circle class="cls-3" cx="604.62" cy="469.53" r="26.36"></circle><path class="cls-4" d="M597.93,485.79a3.35,3.35,0,0,1-2.4-1L587,476.22a3.39,3.39,0,0,1,4.8-4.8l6.17,6.18,19.34-19.35a3.39,3.39,0,1,1,4.8,4.8l-21.74,21.74A3.35,3.35,0,0,1,597.93,485.79Z"></path><rect class="cls-6" x="245.23" y="505.29" width="165.97" height="97.51" rx="7.72"></rect><circle class="cls-3" cx="405.21" cy="593.72" r="26.36"></circle><path class="cls-4" d="M398.52,610a3.38,3.38,0,0,1-2.4-1l-8.57-8.57a3.39,3.39,0,0,1,4.79-4.8l6.18,6.17,19.34-19.34a3.39,3.39,0,0,1,4.8,4.8L400.92,609A3.4,3.4,0,0,1,398.52,610Z"></path><rect class="cls-2" x="444.64" y="505.29" width="165.97" height="97.51" rx="7.72"></rect><circle class="cls-2" cx="604.62" cy="593.72" r="20.83"></circle><rect class="cls-2" x="643.87" y="381.09" width="165.97" height="97.51" rx="7.72"></rect><circle class="cls-2" cx="803.85" cy="469.53" r="20.83"></circle><rect class="cls-6" x="644.05" y="505.29" width="165.97" height="97.51" rx="7.72"></rect><circle class="cls-3" cx="804.03" cy="593.72" r="26.36"></circle><path class="cls-4" d="M797.34,610a3.4,3.4,0,0,1-2.4-1l-8.57-8.57a3.39,3.39,0,0,1,4.8-4.8l6.17,6.17,19.35-19.34a3.39,3.39,0,0,1,4.8,4.8L799.74,609A3.38,3.38,0,0,1,797.34,610Z"></path><path id="Path-30" class="cls-5" d="M986.58,604.81c-14.77,24.79-22.46,47.33-34.19,66.41-6.76,5.1-17.26,20.44-14.8,30.63s23.95-16.91,25.59-23c4.13-5.4,34.54-48.61,41.65-62.72l-17.77-23-20.16,16L976,626.69"></path><path id="Path-30-2" data-name="Path-30" class="cls-7" d="M974.42,626c-9.2,16.69-13.72,31.72-22,45.23-6.76,5.1-16.71,15.6-15.63,31.45,4.71,9.26,24.78-17.73,26.42-23.78,3-3.9,29-44,41.65-62.72l-9.76-12.35"></path><path class="cls-4" d="M939.28,585.45,966.83,617c10.18,2,20.94-7.12,27.13-20.58l-24.28-32.37C960.6,551.17,930.2,572.53,939.28,585.45Z"></path><path id="Path-32" class="cls-5" d="M997,903.17l.86,10c.19,2.25,7.47,24.38,5.56,24.92s-58.2,4.85-52-.55,25.23-20.85,24.84-25.38c1.19-2.07-.36-10.61-.36-10.61Z"></path><path id="Path-33" class="cls-5" d="M928.17,897.7l1.39,27.55-.16,14.08-50.68-.58-1.45-1.49.6-1.16c13.67-9.8,24.92-17.76,31.4-26.83l.6-11.68Z"></path><path id="Path-31" class="cls-8" d="M937,686.37l41.42-.28L980.65,788l22.69,114c-11.68,2-36.17,3-42.89-1.53L937.72,796.7Z"></path><path id="Path-31-2" data-name="Path-31" class="cls-8" d="M954.57,686.19l-40.54.28L902,792.25l-6.67,104.42c5.84,1.15,29.24,3.48,45.94.09l1.3-98.52Z"></path><polygon id="Path-36" class="cls-5" points="960.63 558.85 951.17 556.86 947.66 538.37 950.29 533.82 950.75 527.82 955.03 526.55 956.48 522.04 954.48 517.88 952.87 516.82 953.28 508.86 923.81 512.09 922.29 513.36 919.84 521.61 919.36 530.54 922.53 537.5 926.69 541.36 932.05 543.57 933.8 543.05 936.39 558.75 923.59 559.27 936.44 571.61 961.79 570.12 960.63 558.85"></polygon><path id="Path-20" class="cls-7" d="M948.22,557.82l-.55-19.45a30.39,30.39,0,0,0,2.62-4.55,22.36,22.36,0,0,0,.43-6q7-1.5,5.38-7.1t-7.75-3.11"></path><path id="Path-21" class="cls-7" d="M921.16,517.93q-3.35,9.12-1.15,14.66,5.16,11,14.44,10.78l.58,15.37-2.09.09"></path><path id="Path-22" class="cls-7" d="M953,514.38a9.8,9.8,0,0,0-6.07.51"></path><path id="Path-23" class="cls-8" d="M953.54,512.14a20,20,0,0,0-8.33.27c-.49-.93-1.07-2-1.73-3.1q-5,9.6-21.13,4.68c-16.16-4.93-5.73-33.12,10.78-26.76q8.94,3.58,10.75,6.93,6.11-.89,8.18,2.21Q955.77,500.33,953.54,512.14Z"></path><path id="Path-24" class="cls-4" d="M983,610.73l4.89,73.93c-18.51,6.51-26.95,9-37.46,9s-21.21-1.18-41.5-7.78c1.79-19.3,9.92-93.79,7.53-111.6-1.1-8.23,3.57-15.67,11.87-16,1.6-.07-3.49,6.12,4.21,6.52,1.62-4.4,11-7.94,20.32-7.12,2.37.29,10.14-.7,17.7,6.41S983,610.73,983,610.73Z"></path><path id="Path-32-2" data-name="Path-32" class="cls-7" d="M997.35,906.8l.55,6.37c.19,2.25,7.47,24.38,5.56,24.92s-58.2,4.85-52-.55,25.23-20.85,24.84-25.38l-.15-4.82"></path><path id="Path-33-2" data-name="Path-33" class="cls-7" d="M928.17,902.63c.13,11.71,1.15,19.25,1.39,22.62a104.09,104.09,0,0,1-.16,14.08l-50.68-.58a1.46,1.46,0,0,1-1.45-1.49,1.42,1.42,0,0,1,.6-1.16c22.19-16.38,31.53-24.52,31.4-26.83l-.12-4.82"></path><path id="Path-30-3" data-name="Path-30" class="cls-5" d="M914.71,582.28l-12.27,8.09-46.86-15.19c1.51-2.67-21.91-15.92-28.21-2.94s20.08,17.21,22.94,18.37c1.66.67,46.24,20,59.13,20.49l25.44-7.51C929.38,602.82,918.3,592.93,914.71,582.28Z"></path><path id="Path-24-2" data-name="Path-24" class="cls-4" d="M937.89,560.72c15.57-6.9,26,5,26.55,14.12-7.31,14.27-25.3,30.5-30.16,30.86-5.74.42-21.15-5-25.66-22.1C913.57,576.54,937.89,560.72,937.89,560.72Z"></path><path id="Path-30-4" data-name="Path-30" class="cls-7" d="M926.48,606.68l-17,4.42c-12.89-.51-57.47-19.82-59.13-20.49-2.86-1.16-29.23-5.38-22.94-18.37s29.72.27,28.21,2.94l46.86,15.19,5.07-1.91"></path><path class="cls-7" d="M980.58,604.61c-.94-9.49-3.51-18.44-6.09-23.59"></path><path id="Path-24-3" data-name="Path-24" class="cls-7" d="M964.44,574.84c-6.77,13.2-22.68,28.09-28.87,30.52"></path></svg>